<?xml version="1.0" standalone="no"?>
<!DOCTYPE svg PUBLIC "-//W3C//DTD SVG 20010904//EN"
 "http://www.w3.org/TR/2001/REC-SVG-20010904/DTD/svg10.dtd">
<svg version="1.0" xmlns="http://www.w3.org/2000/svg"
 width="800.000000pt" height="600.000000pt" viewBox="0 0 800.000000 600.000000"
 preserveAspectRatio="xMidYMid meet">
<metadata>
Created by potrace 1.14, written by Peter Selinger 2001-2017
</metadata>
<g transform="translate(0.000000,600.000000) scale(0.100000,-0.100000)"
fill="#000000" stroke="none">
<path d="M540 5715 c-11 -13 -13 -515 -11 -2593 2 -2306 4 -2579 18 -2594 14
-16 72 -17 857 -11 733 5 843 8 859 21 15 14 17 40 17 267 0 231 -1 253 -18
268 -17 15 -73 17 -600 17 l-582 0 0 2080 0 2080 1198 0 1199 0 6 -232 c4
-128 7 -996 7 -1929 0 -1630 1 -1697 18 -1712 16 -15 49 -17 259 -17 219 0
241 2 256 18 16 17 17 114 19 1140 l3 1122 316 -309 c173 -170 329 -315 345
-324 35 -18 78 -19 110 -3 12 7 40 11 61 9 21 -1 50 2 65 8 15 6 186 141 380
299 l353 289 3 -1136 c2 -1040 3 -1138 19 -1155 15 -16 37 -18 263 -18 226 0
248 2 263 18 16 17 17 158 17 1819 0 1731 -1 1801 -18 1816 -16 15 -50 17
-264 17 -221 0 -246 -2 -260 -17 -8 -10 -17 -25 -20 -33 -7 -20 -776 -895
-787 -895 -4 0 -200 218 -434 485 l-426 485 -1 351 c0 327 -1 352 -18 367 -17
16 -152 17 -1739 17 -1536 0 -1722 -2 -1733 -15z"/>
<path d="M4972 5708 c-17 -17 -17 -419 0 -436 9 -9 205 -12 820 -12 l808 0 0
-2110 0 -2110 -1710 0 -1710 0 0 1968 c0 1517 -3 1971 -12 1980 -17 17 -439
17 -456 0 -9 -9 -12 -187 -12 -740 l0 -728 -495 0 -495 0 0 728 c0 553 -3 731
-12 740 -9 9 -73 12 -228 12 -155 0 -219 -3 -228 -12 -17 -17 -17 -3569 0
-3586 17 -17 439 -17 456 0 9 9 12 189 12 750 l0 738 497 0 496 0 -7 -1161
c-5 -880 -4 -1164 5 -1175 10 -12 336 -14 2240 -14 1696 0 2230 3 2235 12 12
19 4 5141 -8 5155 -15 18 -2178 19 -2196 1z"/>
</g>
</svg>
